<svg height="512pt" viewBox="0 0 512 512" width="512pt" xmlns="http://www.w3.org/2000/svg"><path d="m512 256c0 69.75-27.898438 132.980469-73.140625 179.160156-46.460937 47.417969-54.128906-8.117187-182.871094-8.117187-128.738281 0-136.410156 55.515625-182.867187 8.085937-45.242188-46.167968-73.121094-109.390625-73.121094-179.128906 0-141.378906 114.621094-256 256-256s256 114.621094 256 256zm0 0" fill="#00ce8e"/><path d="m255.988281 427.042969c128.742188 0 136.410157 55.535156 182.871094 8.117187 45.242187-46.179687 73.140625-109.410156 73.140625-179.160156 0-.902344-.023438-1.800781-.035156-2.699219l-173.789063-173.792969c-16.828125-19.121093-41.484375-31.191406-68.957031-31.191406h-26.449219c-50.71875 0-91.832031 41.117188-91.832031 91.832032v28.441406c-5.753906 4.375-9.164062 11.566406-8.335938 19.238281l1.859376 17.167969c.5 4.59375 2.445312 8.695312 5.332031 11.902344-4.570313 27.964843-21.316407 64.558593-20.71875 113.242187-31.175781 1.671875-55.953125 27.488281-55.953125 59.089844v45.898437c.753906.769532 1.523437 1.519532 2.285156 2.277344 44.460938 43.316406 53.984375-10.363281 180.582031-10.363281zm0 0" fill="#00a94c"/><path d="m361.050781 204.316406v-64.164062c0-50.71875-41.113281-91.835938-91.832031-91.835938h-26.449219c-50.71875 0-91.832031 41.117188-91.832031 91.835938v64.164062c0 32.667969-28.007812 78.753906-20.671875 145.710938h251.457031c7.335938-66.957032-20.671875-113.042969-20.671875-145.710938zm0 0" fill="#b04b00"/><path d="m382.929688 330.140625c-.078126 6.410156-.460938 13.039063-1.210938 19.890625h-125.71875v-301.710938h13.21875c50.722656 0 91.832031 41.109376 91.832031 91.828126v64.171874c0 29.320313 22.570313 69.460938 21.878907 125.820313zm0 0" fill="#803400"/><path d="m208.851562 283.753906h94.285157v61.621094h-94.285157zm0 0" fill="#ffc473"/><path d="m256 283.753906h47.132812v61.621094h-47.132812zm0 0" fill="#ffb74f"/><path d="m352.125 164.617188c-4.011719-59.082032-54.402344-92.617188-96.132812-92.617188-41.726563 0-92.117188 33.535156-96.128907 92.617188-10.800781 2.023437-18.460937 12.117187-17.261719 23.210937l1.859376 17.167969c1.261718 11.648437 11.824218 20.148437 23.472656 18.886718l2.003906-.21875c23.84375 62.0625 62.320312 78.042969 86.054688 81.675782 23.738281-3.632813 62.214843-19.609375 86.058593-81.675782l2.003907.21875c11.648437 1.261719 22.210937-7.238281 23.472656-18.886718l1.859375-17.167969c1.199219-11.09375-6.460938-21.1875-17.261719-23.210937zm0 0" fill="#ffdba9"/><path d="m369.382812 187.828125-1.851562 17.171875c-1.269531 11.644531-11.832031 20.140625-23.476562 18.886719l-2.007813-.21875c-23.835937 62.058593-62.3125 78.035156-86.046875 81.671875v-233.335938c41.722656 0 92.109375 33.535156 96.128906 92.613282 10.800782 2.019531 18.460938 12.121093 17.253906 23.210937zm0 0" fill="#ffc473"/><path d="m256 166.929688v71.316406h20.820312v-50.496094h45.351563v-20.820312zm0 0" fill="#ffaa20"/><path d="m188.273438 166.929688h53.09375v20.820312h-53.09375zm0 0" fill="#ffc473"/><path d="m438.859375 389.230469v45.929687c-46.460937 47.417969-111.230469 76.839844-182.859375 76.839844h-.011719c-71.636719-.011719-136.410156-29.441406-182.867187-76.871094v-45.898437c0-32.679688 26.5-59.179688 59.167968-59.179688h247.410157c32.671875 0 59.160156 26.5 59.160156 59.179688zm0 0" fill="#fff"/><path d="m438.859375 389.21875v45.941406c-46.460937 47.417969-111.230469 76.839844-182.859375 76.839844h-.011719v-181.949219h123.710938c32.671875 0 59.160156 26.5 59.160156 59.167969zm0 0" fill="#fff5cb"/><path d="m379.699219 330.050781h-101.769531l-111.992188 165.640625c28.015625 10.53125 58.359375 16.304688 90.050781 16.308594h.011719c6.671875 0 13.285156-.257812 19.832031-.757812l120.828125-178.710938c-5.375-1.605469-11.0625-2.480469-16.960937-2.480469zm0 0" fill="#ff2e92"/><path d="m396.660156 332.53125-120.832031 178.707031c-6.539063.5-13.15625.761719-19.828125.761719v-149.511719l3.171875-4.699219 5.25-7.757812 13.507813-19.980469h101.769531c1.082031 0 2.160156.027344 3.230469.089844 4.75.25 9.351562 1.078125 13.730468 2.390625zm0 0" fill="#e6045c"/><path d="m122.339844 419.546875v54.808594c9.597656 5.890625 19.617187 11.164062 30 15.765625v-70.570313zm0 0" fill="#fff5cb"/><path d="m359.671875 419.546875v70.570313c10.382813-4.605469 20.398437-9.878907 30-15.765626v-54.804687zm0 0" fill="#ffed93"/><path d="m267.660156 59.667969h-23.328125c-46.757812 0-84.667969 37.90625-84.667969 84.667969v150.394531c0 34.828125 28.234376 63.058593 63.058594 63.058593h66.546875c34.824219 0 63.058594-28.230468 63.058594-63.058593v-150.398438c0-46.757812-37.90625-84.664062-84.667969-84.664062zm65.332032 148.289062c0 16.730469-13.558594 30.289063-30.289063 30.289063h-93.414063c-16.726562 0-30.289062-13.558594-30.289062-30.289063v-33.273437c0-7.214844 3.851562-13.929688 10.167969-17.425782 36.363281-20.132812 66.820312-57.636718 66.820312-57.636718s30.476563 37.503906 66.839844 57.636718c6.3125 3.496094 10.164063 10.210938 10.164063 17.425782zm0 0" fill="#b04b00"/><path d="m267.660156 59.671875h-11.660156v39.96875c.828125 1.007813 30.960938 37.757813 66.828125 57.621094 6.3125 3.488281 10.160156 10.207031 10.160156 17.417969v33.28125c0 16.730468-13.558593 30.289062-30.289062 30.289062h-46.699219v119.539062h33.269531c10.992188 0 21.320313-2.808593 30.320313-7.757812 8.800781-4.832031 16.320312-11.703125 21.929687-19.980469 6.820313-10.082031 10.808594-22.242187 10.808594-35.320312v-150.402344c0-46.757813-37.90625-84.65625-84.667969-84.65625zm0 0" fill="#803400"/><path d="m223.113281 262.933594h65.769531v20.820312h-65.769531zm0 0" fill="#ffc473"/><path d="m256 262.929688h32.878906v20.820312h-32.878906zm0 0" fill="#ffaa20"/></svg>